<?xml version="1.0" encoding="UTF-8" standalone="no"?>
<!DOCTYPE svg PUBLIC "-//W3C//DTD SVG 1.1//EN" "http://www.w3.org/Graphics/SVG/1.1/DTD/svg11.dtd">
<svg width="100%" height="100%" viewBox="0 0 451 448" version="1.1" xmlns="http://www.w3.org/2000/svg" xmlns:xlink="http://www.w3.org/1999/xlink" xml:space="preserve" xmlns:serif="http://www.serif.com/" style="fill-rule:evenodd;clip-rule:evenodd;stroke-linecap:round;stroke-linejoin:round;stroke-miterlimit:1.5;">
    <g id="Plan-de-travail1" serif:id="Plan de travail1" transform="matrix(0.534883,0,0,0.75233,0,0)">
        <rect x="0" y="0" width="841.9" height="595.3" style="fill:none;"/>
        <g transform="matrix(1.90897,0,0,1.35722,-78.6343,-35.6237)">
            <circle cx="262.038" cy="245.625" r="219.377" style="fill:white;stroke:rgb(136,22,30);stroke-width:0.98px;"/>
        </g>
        <g transform="matrix(1.86957,0,0,1.3292,-337.888,-97.9874)">
            <path d="M405.889,80.853C525.543,80.853 622.686,177.996 622.686,297.65C622.686,417.304 525.543,514.447 405.889,514.447C286.236,514.447 189.092,417.304 189.092,297.65C189.092,177.996 286.236,80.853 405.889,80.853ZM341.202,417.525C331.264,417.525 322.147,421.58 313.85,429.689C305.553,437.799 298.827,449.681 293.67,465.338L293.67,193.088L327.139,193.088C337.077,193.088 345.069,193.181 351.116,193.369C357.163,193.556 361.264,193.838 363.42,194.213C369.608,195.338 374.975,197.189 379.522,199.767C384.069,202.345 387.819,206.002 390.772,210.736C393.725,215.47 395.928,221.447 397.381,228.666C398.834,235.885 399.561,244.744 399.561,255.244C399.561,264.244 399.163,271.627 398.366,277.392C397.569,283.158 396.186,287.752 394.217,291.174C392.249,294.595 389.577,297.103 386.202,298.697C382.827,300.291 378.561,301.416 373.405,302.072C378.186,303.572 382.1,305.33 385.147,307.345C388.194,309.361 390.631,311.47 392.459,313.674C394.288,315.877 395.624,318.15 396.467,320.494C397.311,322.838 397.967,325.041 398.436,327.103C398.811,328.978 399.092,332.705 399.28,338.283C399.467,343.861 399.561,351.431 399.561,360.994L399.561,418.369L355.545,418.369L355.545,345.385C355.545,334.885 355.264,328.65 354.702,326.681C353.202,320.963 348.702,318.103 341.202,318.103L341.202,417.525ZM508.405,302.072C506.436,296.447 503.975,291.22 501.022,286.392C498.069,281.564 494.741,277.369 491.038,273.806C487.334,270.244 483.28,267.455 478.874,265.439C474.467,263.424 469.827,262.416 464.952,262.416L464.952,245.541C464.952,241.791 464.858,238.744 464.67,236.4C464.483,234.056 464.108,232.205 463.545,230.845C462.983,229.486 462.233,228.549 461.295,228.033C460.358,227.517 459.186,227.26 457.78,227.26C452.061,227.26 449.202,233.119 449.202,244.838C449.202,248.681 449.319,251.939 449.553,254.611C449.788,257.283 450.42,259.72 451.452,261.924C452.483,264.127 454.053,266.283 456.163,268.392C458.272,270.502 461.155,272.916 464.811,275.635C474.749,282.947 482.858,289.58 489.139,295.533C495.42,301.486 499.92,306.76 502.639,311.353C509.202,322.416 512.483,337.978 512.483,358.041C512.483,366.478 512.131,373.603 511.428,379.416C510.725,385.228 509.53,390.174 507.842,394.252C506.155,398.33 503.905,401.799 501.092,404.658C498.28,407.517 494.717,410.213 490.405,412.744C481.78,417.9 471.749,420.478 460.311,420.478C454.311,420.478 448.616,419.728 443.225,418.228C437.834,416.728 432.959,414.595 428.6,411.83C424.241,409.064 420.514,405.76 417.42,401.916C414.327,398.072 412.077,393.76 410.67,388.978C407.952,379.416 406.592,366.291 406.592,349.603L406.592,338.775L450.327,338.775L450.327,362.4C450.327,367.181 450.491,370.908 450.819,373.58C451.147,376.252 451.663,378.244 452.366,379.556C453.069,380.869 453.936,381.666 454.967,381.947C455.999,382.228 457.217,382.369 458.624,382.369C464.811,382.369 467.905,376.275 467.905,364.088C467.905,351.431 466.077,343.603 462.42,340.603C460.358,337.416 453.374,330.994 441.467,321.338C436.78,317.588 432.631,314.142 429.022,311.002C425.413,307.861 422.272,304.744 419.6,301.65C416.928,298.556 414.655,295.416 412.78,292.228C410.905,289.041 409.405,285.525 408.28,281.681C407.155,277.838 406.358,273.549 405.889,268.814C405.42,264.08 405.186,258.666 405.186,252.572C405.186,244.322 405.584,237.15 406.381,231.056C407.178,224.963 408.467,219.713 410.249,215.306C412.03,210.9 414.327,207.15 417.139,204.056C419.952,200.963 423.42,198.244 427.545,195.9C435.42,191.4 444.983,189.15 456.233,189.15C461.858,189.15 467.225,189.76 472.334,190.978C477.444,192.197 482.131,193.931 486.397,196.181C490.663,198.431 494.342,201.174 497.436,204.408C500.53,207.642 502.874,211.275 504.467,215.306C507.092,222.056 508.405,234.713 508.405,253.275L508.405,302.072ZM341.202,232.181L341.202,282.806C344.108,282.806 346.499,282.619 348.374,282.244C350.249,281.869 351.702,280.978 352.733,279.572C353.764,278.166 354.491,276.103 354.913,273.385C355.334,270.666 355.545,266.963 355.545,262.275L355.545,249.619C355.545,246.15 355.311,243.291 354.842,241.041C354.374,238.791 353.6,237.01 352.522,235.697C351.444,234.385 349.991,233.47 348.163,232.955C346.334,232.439 344.014,232.181 341.202,232.181Z" style="fill:rgb(136,22,30);"/>
        </g>
    </g>
</svg>
